<mxfile host="65bd71144e">
    <diagram name="Page-1" id="4Fe1I5dRGEgEyMsVQMym">
        <mxGraphModel dx="1279" dy="250" grid="1" gridSize="10" guides="1" tooltips="1" connect="1" arrows="1" fold="1" page="1" pageScale="1" pageWidth="827" pageHeight="1169" math="0" shadow="0">
            <root>
                <mxCell id="0"/>
                <mxCell id="1" parent="0"/>
                <mxCell id="61" style="edgeStyle=none;html=1;entryX=0.5;entryY=0;entryDx=0;entryDy=0;" edge="1" parent="1" source="57" target="58">
                    <mxGeometry relative="1" as="geometry"/>
                </mxCell>
                <mxCell id="57" value="Start Processing new Frame" style="shape=process;whiteSpace=wrap;html=1;backgroundOutline=1;" vertex="1" parent="1">
                    <mxGeometry x="375" y="110" width="120" height="60" as="geometry"/>
                </mxCell>
                <mxCell id="62" style="edgeStyle=none;html=1;entryX=0.5;entryY=0;entryDx=0;entryDy=0;" edge="1" parent="1" source="58" target="59">
                    <mxGeometry relative="1" as="geometry"/>
                </mxCell>
                <mxCell id="58" value="Check args" style="shape=process;whiteSpace=wrap;html=1;backgroundOutline=1;" vertex="1" parent="1">
                    <mxGeometry x="375" y="280" width="120" height="60" as="geometry"/>
                </mxCell>
                <mxCell id="63" value="NO" style="edgeStyle=none;html=1;entryX=0.5;entryY=0;entryDx=0;entryDy=0;" edge="1" parent="1" source="59" target="60">
                    <mxGeometry relative="1" as="geometry">
                        <mxPoint as="offset"/>
                    </mxGeometry>
                </mxCell>
                <mxCell id="79" style="edgeStyle=none;html=1;entryX=0;entryY=0.5;entryDx=0;entryDy=0;" edge="1" parent="1" source="59" target="78">
                    <mxGeometry relative="1" as="geometry"/>
                </mxCell>
                <mxCell id="59" value="Should check for specific object?" style="rhombus;whiteSpace=wrap;html=1;spacingLeft=20;spacingBottom=0;spacingRight=20;" vertex="1" parent="1">
                    <mxGeometry x="370" y="440" width="130" height="110" as="geometry"/>
                </mxCell>
                <mxCell id="70" style="edgeStyle=none;html=1;entryX=0.5;entryY=0;entryDx=0;entryDy=0;" edge="1" parent="1" source="60" target="67">
                    <mxGeometry relative="1" as="geometry"/>
                </mxCell>
                <mxCell id="60" value="Check for faces with face recognition" style="shape=process;whiteSpace=wrap;html=1;backgroundOutline=1;" vertex="1" parent="1">
                    <mxGeometry x="378" y="680" width="120" height="60" as="geometry"/>
                </mxCell>
                <mxCell id="66" value="NO" style="edgeStyle=none;html=1;" edge="1" parent="1" source="64">
                    <mxGeometry x="-0.2941" relative="1" as="geometry">
                        <mxPoint x="438" y="1330" as="targetPoint"/>
                        <mxPoint as="offset"/>
                    </mxGeometry>
                </mxCell>
                <mxCell id="95" value="YES" style="edgeStyle=none;html=1;entryX=1;entryY=0.5;entryDx=0;entryDy=0;" edge="1" parent="1" source="64" target="94">
                    <mxGeometry relative="1" as="geometry"/>
                </mxCell>
                <mxCell id="64" value="Where target names specified in args?" style="rhombus;whiteSpace=wrap;html=1;spacingLeft=20;spacingRight=20;" vertex="1" parent="1">
                    <mxGeometry x="370" y="1040" width="136" height="120" as="geometry"/>
                </mxCell>
                <mxCell id="68" value="NO" style="edgeStyle=none;html=1;entryX=0.5;entryY=0;entryDx=0;entryDy=0;" edge="1" parent="1" source="67" target="57">
                    <mxGeometry relative="1" as="geometry">
                        <mxPoint x="414" y="100" as="targetPoint"/>
                        <Array as="points">
                            <mxPoint x="240" y="880"/>
                            <mxPoint x="240" y="40"/>
                            <mxPoint x="435" y="40"/>
                        </Array>
                    </mxGeometry>
                </mxCell>
                <mxCell id="69" value="YES" style="edgeStyle=none;html=1;entryX=0.5;entryY=0;entryDx=0;entryDy=0;" edge="1" parent="1" source="67" target="64">
                    <mxGeometry relative="1" as="geometry"/>
                </mxCell>
                <mxCell id="73" value="NO" style="edgeStyle=none;html=1;entryX=0;entryY=0.5;entryDx=0;entryDy=0;" edge="1" parent="1" source="67" target="71">
                    <mxGeometry relative="1" as="geometry"/>
                </mxCell>
                <mxCell id="67" value="Were faces found?" style="rhombus;whiteSpace=wrap;html=1;" vertex="1" parent="1">
                    <mxGeometry x="366" y="820" width="144" height="120" as="geometry"/>
                </mxCell>
                <mxCell id="88" style="edgeStyle=none;html=1;entryX=0.5;entryY=0;entryDx=0;entryDy=0;" edge="1" parent="1" source="71" target="86">
                    <mxGeometry relative="1" as="geometry">
                        <mxPoint x="940" y="1030" as="targetPoint"/>
                        <Array as="points">
                            <mxPoint x="830" y="980"/>
                            <mxPoint x="940" y="980"/>
                        </Array>
                    </mxGeometry>
                </mxCell>
                <mxCell id="71" value="Check for People" style="shape=process;whiteSpace=wrap;html=1;backgroundOutline=1;" vertex="1" parent="1">
                    <mxGeometry x="770" y="850" width="120" height="60" as="geometry"/>
                </mxCell>
                <mxCell id="76" style="edgeStyle=none;html=1;entryX=0.5;entryY=0;entryDx=0;entryDy=0;" edge="1" parent="1" source="74" target="71">
                    <mxGeometry relative="1" as="geometry"/>
                </mxCell>
                <mxCell id="77" value="YES" style="edgeLabel;html=1;align=center;verticalAlign=middle;resizable=0;points=[];" vertex="1" connectable="0" parent="76">
                    <mxGeometry x="-0.1093" relative="1" as="geometry">
                        <mxPoint as="offset"/>
                    </mxGeometry>
                </mxCell>
                <mxCell id="84" style="edgeStyle=none;html=1;entryX=0.5;entryY=0;entryDx=0;entryDy=0;" edge="1" parent="1" source="74" target="85">
                    <mxGeometry relative="1" as="geometry">
                        <mxPoint x="1050" y="830" as="targetPoint"/>
                        <Array as="points">
                            <mxPoint x="1050" y="498"/>
                        </Array>
                    </mxGeometry>
                </mxCell>
                <mxCell id="74" value="Is the object to check people" style="rhombus;whiteSpace=wrap;html=1;spacingLeft=20;spacingBottom=0;spacingRight=20;" vertex="1" parent="1">
                    <mxGeometry x="770" y="445" width="120" height="105" as="geometry"/>
                </mxCell>
                <mxCell id="80" style="edgeStyle=none;html=1;entryX=0;entryY=0.5;entryDx=0;entryDy=0;" edge="1" parent="1" source="78" target="74">
                    <mxGeometry relative="1" as="geometry"/>
                </mxCell>
                <mxCell id="81" style="edgeStyle=none;html=1;entryX=0.5;entryY=0;entryDx=0;entryDy=0;" edge="1" parent="1" source="78" target="60">
                    <mxGeometry relative="1" as="geometry">
                        <Array as="points">
                            <mxPoint x="640" y="640"/>
                            <mxPoint x="438" y="640"/>
                        </Array>
                    </mxGeometry>
                </mxCell>
                <mxCell id="78" value="Is the object to check faces" style="rhombus;whiteSpace=wrap;html=1;spacingLeft=20;spacingBottom=0;spacingRight=20;" vertex="1" parent="1">
                    <mxGeometry x="580" y="445" width="120" height="105" as="geometry"/>
                </mxCell>
                <mxCell id="102" style="edgeStyle=none;html=1;entryX=0.5;entryY=0;entryDx=0;entryDy=0;" edge="1" parent="1" source="82" target="57">
                    <mxGeometry relative="1" as="geometry">
                        <mxPoint x="438" y="1510" as="targetPoint"/>
                        <Array as="points">
                            <mxPoint x="-160" y="1375"/>
                            <mxPoint x="-160" y="40"/>
                            <mxPoint x="435" y="40"/>
                        </Array>
                    </mxGeometry>
                </mxCell>
                <mxCell id="82" value="Aim and shoot" style="shape=process;whiteSpace=wrap;html=1;backgroundOutline=1;" vertex="1" parent="1">
                    <mxGeometry x="318" y="1330" width="240" height="90" as="geometry"/>
                </mxCell>
                <mxCell id="87" style="edgeStyle=none;html=1;entryX=0.5;entryY=0;entryDx=0;entryDy=0;" edge="1" parent="1" source="85" target="86">
                    <mxGeometry relative="1" as="geometry">
                        <Array as="points">
                            <mxPoint x="1050" y="980"/>
                            <mxPoint x="940" y="980"/>
                        </Array>
                    </mxGeometry>
                </mxCell>
                <mxCell id="85" value="Check for object type" style="shape=process;whiteSpace=wrap;html=1;backgroundOutline=1;" vertex="1" parent="1">
                    <mxGeometry x="990" y="850" width="120" height="60" as="geometry"/>
                </mxCell>
                <mxCell id="89" value="YES" style="edgeStyle=none;html=1;entryX=0.5;entryY=0;entryDx=0;entryDy=0;" edge="1" parent="1" source="86" target="82">
                    <mxGeometry x="-0.7639" y="-2" relative="1" as="geometry">
                        <Array as="points">
                            <mxPoint x="940" y="1270"/>
                            <mxPoint x="438" y="1270"/>
                        </Array>
                        <mxPoint as="offset"/>
                    </mxGeometry>
                </mxCell>
                <mxCell id="91" style="edgeStyle=none;html=1;entryX=0.5;entryY=0;entryDx=0;entryDy=0;" edge="1" parent="1" source="86" target="57">
                    <mxGeometry relative="1" as="geometry">
                        <Array as="points">
                            <mxPoint x="1230" y="1090"/>
                            <mxPoint x="1220" y="40"/>
                            <mxPoint x="435" y="40"/>
                        </Array>
                    </mxGeometry>
                </mxCell>
                <mxCell id="92" value="Text" style="edgeLabel;html=1;align=center;verticalAlign=middle;resizable=0;points=[];" vertex="1" connectable="0" parent="91">
                    <mxGeometry x="-0.9153" y="1" relative="1" as="geometry">
                        <mxPoint as="offset"/>
                    </mxGeometry>
                </mxCell>
                <mxCell id="86" value="Was the object type search for found" style="rhombus;whiteSpace=wrap;html=1;spacingLeft=20;spacingRight=20;" vertex="1" parent="1">
                    <mxGeometry x="870" y="1030" width="136" height="120" as="geometry"/>
                </mxCell>
                <mxCell id="96" style="edgeStyle=none;html=1;entryX=0.5;entryY=0;entryDx=0;entryDy=0;" edge="1" parent="1" source="94" target="82">
                    <mxGeometry relative="1" as="geometry">
                        <Array as="points">
                            <mxPoint x="153" y="1270"/>
                            <mxPoint x="438" y="1270"/>
                        </Array>
                    </mxGeometry>
                </mxCell>
                <mxCell id="101" value="YES" style="edgeLabel;html=1;align=center;verticalAlign=middle;resizable=0;points=[];" vertex="1" connectable="0" parent="96">
                    <mxGeometry x="-0.7678" y="1" relative="1" as="geometry">
                        <mxPoint as="offset"/>
                    </mxGeometry>
                </mxCell>
                <mxCell id="94" value="Where the ids of the targets matching the faces recognised?" style="rhombus;whiteSpace=wrap;html=1;spacingLeft=40;spacingRight=40;" vertex="1" parent="1">
                    <mxGeometry x="40" y="1030" width="226" height="140" as="geometry"/>
                </mxCell>
                <mxCell id="100" style="edgeStyle=none;html=1;entryX=0.5;entryY=0;entryDx=0;entryDy=0;exitX=0;exitY=0.5;exitDx=0;exitDy=0;" edge="1" parent="1" source="94" target="57">
                    <mxGeometry relative="1" as="geometry">
                        <mxPoint x="-179.43396226415098" y="1070" as="sourcePoint"/>
                        <Array as="points">
                            <mxPoint x="-160" y="1100"/>
                            <mxPoint x="-160" y="40"/>
                            <mxPoint x="435" y="40"/>
                        </Array>
                    </mxGeometry>
                </mxCell>
                <mxCell id="104" value="NO" style="edgeLabel;html=1;align=center;verticalAlign=middle;resizable=0;points=[];" vertex="1" connectable="0" parent="100">
                    <mxGeometry x="-0.9238" y="2" relative="1" as="geometry">
                        <mxPoint as="offset"/>
                    </mxGeometry>
                </mxCell>
                <mxCell id="105" value="" style="endArrow=classic;html=1;" edge="1" parent="1">
                    <mxGeometry width="50" height="50" relative="1" as="geometry">
                        <mxPoint x="-160" y="1150" as="sourcePoint"/>
                        <mxPoint x="-160" y="1080" as="targetPoint"/>
                    </mxGeometry>
                </mxCell>
                <mxCell id="107" value="" style="endArrow=classic;html=1;" edge="1" parent="1">
                    <mxGeometry width="50" height="50" relative="1" as="geometry">
                        <mxPoint x="1226" y="710" as="sourcePoint"/>
                        <mxPoint x="1225" y="576" as="targetPoint"/>
                    </mxGeometry>
                </mxCell>
            </root>
        </mxGraphModel>
    </diagram>
</mxfile>